<?xml version="1.0" standalone="no"?>
<!DOCTYPE svg PUBLIC "-//W3C//DTD SVG 20010904//EN"
 "http://www.w3.org/TR/2001/REC-SVG-20010904/DTD/svg10.dtd">
<svg version="1.0" xmlns="http://www.w3.org/2000/svg"
 width="512.000000pt" height="512.000000pt" viewBox="0 0 512.000000 512.000000"
 preserveAspectRatio="xMidYMid meet">
<metadata>
Created by potrace 1.11, written by Peter Selinger 2001-2013
</metadata>
<g transform="translate(0.000000,512.000000) scale(0.100000,-0.100000)"
fill="#000000" stroke="none">
<path d="M2504 4833 c9 -16 10 -156 2 -219 -14 -113 -60 -233 -139 -367 -88
-147 -90 -226 -10 -305 33 -32 63 -97 70 -150 l5 -47 142 0 c77 0 167 -4 199
-9 l57 -8 0 79 c0 47 -7 99 -16 126 -18 52 -72 115 -121 140 -69 36 -98 140
-64 235 11 32 16 74 15 132 -4 156 -46 291 -115 370 -17 19 -28 30 -25 23z"/>
<path d="M3631 4506 c-71 -150 -216 -290 -391 -375 -77 -38 -108 -64 -145
-120 -26 -39 -27 -45 -21 -114 11 -110 9 -129 -22 -200 l-20 -45 51 -23 c72
-33 193 -114 241 -160 48 -46 48 -46 103 68 28 58 35 84 35 130 -1 77 -5 97
-19 106 -18 12 -44 107 -37 141 8 43 21 64 84 134 96 104 167 265 177 397 3
39 1 79 -4 91 -7 18 -11 15 -32 -30z"/>
<path d="M1390 4503 c0 -3 11 -20 24 -37 57 -75 116 -229 131 -341 3 -22 5
-87 4 -145 0 -58 -1 -113 0 -123 0 -10 7 -40 16 -67 17 -52 81 -120 113 -120
21 0 87 -35 111 -58 10 -9 28 -32 40 -50 22 -31 24 -32 45 -18 61 45 167 103
238 132 43 17 81 34 84 37 7 6 -53 100 -88 138 -37 42 -102 70 -175 74 -114 8
-173 55 -186 148 -6 40 -13 62 -51 147 -34 78 -145 206 -211 245 -47 28 -95
47 -95 38z"/>
<path d="M4450 3711 c-131 -90 -289 -130 -505 -128 -189 1 -234 -22 -280 -144
-25 -64 -68 -118 -120 -146 -16 -9 -13 -16 23 -69 44 -64 99 -172 127 -246
l17 -47 57 29 c103 53 148 118 156 225 7 111 44 164 128 185 194 49 390 204
446 353 6 15 9 27 8 26 -1 0 -27 -18 -57 -38z"/>
<path d="M596 3662 c-15 -7 -7 -14 46 -40 72 -35 144 -89 140 -104 -1 -5 2 -7
7 -4 5 3 36 -23 68 -59 53 -58 96 -123 178 -268 26 -47 96 -107 132 -114 28
-5 43 -5 124 3 69 6 82 4 134 -20 67 -30 65 -30 65 -12 0 32 88 176 167 273
25 30 43 56 41 57 -2 2 -34 18 -73 36 -38 18 -72 35 -75 39 -7 8 -33 12 -100
13 -41 2 -69 -5 -113 -25 -109 -52 -165 -41 -260 50 -69 66 -155 117 -254 149
-82 27 -195 40 -227 26z"/>
<path d="M2420 3533 c-50 -9 -185 -44 -205 -53 -11 -5 -42 -19 -70 -31 -173
-75 -353 -246 -451 -430 -16 -30 -33 -57 -39 -61 -5 -4 -7 -8 -3 -8 3 0 -3
-24 -13 -52 -62 -167 -75 -370 -35 -563 10 -47 50 -155 84 -222 132 -264 413
-473 700 -520 61 -10 283 -10 344 0 149 24 328 108 452 211 363 301 461 815
235 1231 -18 33 -36 62 -41 63 -4 2 -8 8 -8 14 0 5 -6 16 -12 24 -7 7 -40 45
-73 82 -123 141 -302 247 -500 298 -58 15 -312 27 -365 17z"/>
<path d="M1199 2816 c-51 -18 -88 -49 -129 -108 -66 -95 -105 -107 -255 -79
-188 36 -400 -4 -498 -95 -27 -24 -36 -41 -17 -29 13 8 146 9 210 0 93 -12
225 -60 331 -120 115 -66 159 -84 211 -85 49 0 75 11 123 54 43 38 129 76 173
76 l27 0 1 142 c0 79 4 169 8 201 l8 57 -79 0 c-43 -1 -94 -7 -114 -14z"/>
<path d="M4025 2796 c-16 -7 -52 -31 -79 -54 -46 -38 -108 -64 -165 -67 -26
-1 -26 -2 -27 -76 -2 -76 -10 -190 -20 -268 l-5 -44 99 5 c118 6 168 28 219
98 53 74 81 99 124 110 41 11 58 10 169 -15 91 -20 245 -13 335 15 62 19 165
76 165 91 0 3 -39 4 -86 2 -76 -2 -108 1 -203 21 -57 12 -151 49 -216 86 -87
48 -175 93 -195 98 -43 11 -88 11 -115 -2z"/>
<path d="M1364 2169 c-59 -29 -121 -85 -144 -130 -12 -22 -22 -68 -25 -110 -8
-114 -44 -158 -150 -185 -172 -44 -362 -198 -421 -340 l-15 -36 43 30 c61 41
154 87 216 105 28 9 52 14 52 12 0 -3 12 1 28 7 15 6 99 12 192 13 129 2 174
7 208 20 47 19 89 63 98 103 16 66 70 136 130 170 16 9 14 14 -18 58 -39 53
-105 180 -133 257 -10 26 -18 47 -19 47 0 -1 -20 -10 -42 -21z"/>
<path d="M3624 2027 c-43 -90 -183 -282 -198 -271 -3 2 -3 0 1 -5 16 -17 139
-78 178 -87 61 -15 107 -10 171 19 75 33 110 39 156 27 42 -12 141 -97 131
-113 -4 -6 -1 -7 6 -3 7 5 20 2 29 -6 101 -86 320 -154 427 -134 l38 7 -52 24
c-155 72 -270 190 -371 378 -55 104 -113 166 -172 183 -23 7 -52 7 -96 -1 -34
-6 -63 -11 -65 -9 -1 1 -16 4 -33 7 -17 3 -51 14 -76 25 l-45 20 -29 -61z"/>
<path d="M1715 1635 c-71 -111 -80 -194 -31 -297 49 -104 40 -164 -37 -247
-134 -144 -218 -360 -192 -497 l6 -36 37 71 c45 86 71 120 144 192 62 62 159
129 254 177 62 31 128 94 144 138 11 29 12 97 1 134 -9 33 6 114 29 160 l19
37 -49 22 c-77 35 -165 94 -242 161 l-47 42 -36 -57z"/>
<path d="M3227 1554 c-65 -47 -191 -109 -280 -138 -16 -5 -15 -11 12 -63 62
-118 109 -149 246 -159 95 -7 154 -56 169 -141 11 -62 92 -213 148 -279 52
-61 148 -134 200 -153 27 -10 26 -9 -16 57 -48 76 -81 149 -92 207 -10 51 -11
54 -14 58 -8 10 -12 64 -15 202 -2 151 -4 164 -29 213 -29 58 -46 72 -128 102
-41 15 -69 34 -98 67 -22 25 -40 50 -40 54 0 15 -13 9 -63 -27z"/>
<path d="M2293 1304 c6 -119 7 -120 35 -166 23 -37 54 -65 108 -97 34 -21 74
-92 74 -134 0 -14 -7 -52 -16 -84 -37 -132 -22 -333 33 -449 20 -43 56 -94 66
-94 2 0 2 39 1 88 -4 145 37 302 113 434 84 146 93 165 97 218 5 60 -8 93 -57
149 -36 42 -63 102 -71 156 -3 22 -5 40 -6 41 0 0 -28 0 -62 0 -122 1 -289 17
-311 31 -6 3 -7 -32 -4 -93z"/>
</g>
</svg>
